<svg data-v-423bf9ae="" xmlns="http://www.w3.org/2000/svg" viewBox="0 0 132.3583667430448 60" class="font"><!----><!----><!----><g data-v-423bf9ae="" id="ffd382a3-f76f-4233-9e2a-97245d408c3b" fill="#D32E6B" transform="matrix(3.4542312666144936,0,0,3.4542312666144936,-0.6313557888442887,2.6943000507143786)"><path d="M9.69 11.13L9.69 11.13L9.69 11.13Q9.73 11.21 9.69 11.30L9.69 11.30L9.69 11.30Q9.60 11.49 9.49 11.61L9.49 11.61L9.49 11.61Q9.35 11.75 9.17 11.75L9.17 11.75L9.17 11.75Q8.69 11.75 8.34 11.24L8.34 11.24L8.34 11.24Q8.04 10.79 7.78 9.90L7.78 9.90L7.78 9.90Q7.32 8.26 7.32 5.95L7.32 5.95L7.32 5.95Q7.32 5.40 7.39 4.82L7.39 4.82L7.39 4.82Q7.46 4.24 7.49 3.61L7.49 3.61L7.49 3.58L7.49 3.58Q7.38 4.30 7.18 5.06L7.18 5.06L7.18 5.06Q6.99 5.82 6.79 6.78L6.79 6.78L6.79 6.78Q6.68 7.21 6.60 7.53L6.60 7.53L6.60 7.53Q6.52 7.84 6.44 8.12L6.44 8.12L6.44 8.12Q6.36 8.40 6.24 8.69L6.24 8.69L6.24 8.69Q6.12 8.99 5.92 9.37L5.92 9.37L5.92 9.37Q5.81 9.60 5.68 9.77L5.68 9.77L5.68 9.77Q5.54 9.94 5.42 10.05L5.42 10.05L5.42 10.05Q5.12 10.32 4.86 10.32L4.86 10.32L4.86 10.32Q4.52 10.32 4.21 10.05L4.21 10.05L4.21 10.05Q3.95 9.83 3.71 9.35L3.71 9.35L3.71 9.35Q3.49 8.90 3.36 8.27L3.36 8.27L3.36 8.27Q3.23 7.64 3.14 6.72L3.14 6.72L3.14 6.71L3.14 6.71Q2.94 5.15 2.72 3.51L2.72 3.51L2.72 3.51Q2.70 3.53 2.70 3.54L2.70 3.54L2.70 3.54Q2.70 3.56 2.69 3.57L2.69 3.57L2.69 3.57Q2.69 3.58 2.69 3.60L2.69 3.60L2.69 3.60Q2.58 3.89 2.44 4.30L2.44 4.30L2.44 4.30Q2.31 4.70 2.16 5.24L2.16 5.24L2.16 5.24Q2.00 5.67 1.87 6.07L1.87 6.07L1.87 6.07Q1.74 6.47 1.61 6.83L1.61 6.83L1.61 6.83Q1.51 7.11 1.44 7.37L1.44 7.37L1.44 7.37Q1.36 7.63 1.29 7.88L1.29 7.88L1.29 7.88Q1.20 8.23 1.11 8.54L1.11 8.54L1.11 8.54Q1.02 8.85 1.06 9.17L1.06 9.17L1.06 9.17Q1.11 9.48 1.19 9.68L1.19 9.68L1.19 9.68Q1.27 9.88 1.37 10.05L1.37 10.05L1.37 10.05Q1.43 10.16 1.46 10.29L1.46 10.29L1.46 10.29Q1.48 10.42 1.45 10.50L1.45 10.50L1.45 10.50Q1.41 10.58 1.29 10.61L1.29 10.61L1.29 10.61Q1.16 10.63 0.91 10.50L0.91 10.50L0.91 10.50Q0.77 10.43 0.66 10.30L0.66 10.30L0.66 10.30Q0.55 10.18 0.46 10.03L0.46 10.03L0.46 10.03Q0.38 9.88 0.33 9.74L0.33 9.74L0.33 9.74Q0.28 9.60 0.25 9.49L0.25 9.49L0.25 9.49Q0.14 9.09 0.21 8.60L0.21 8.60L0.21 8.60Q0.28 8.12 0.43 7.56L0.43 7.56L0.43 7.56Q0.46 7.45 0.55 7.21L0.55 7.21L0.55 7.21Q0.63 6.97 0.71 6.71L0.71 6.71L0.71 6.71Q0.80 6.45 0.88 6.24L0.88 6.24L0.88 6.24Q0.97 6.02 0.99 5.94L0.99 5.94L0.99 5.94Q1.13 5.57 1.26 5.19L1.26 5.19L1.26 5.19Q1.39 4.80 1.50 4.40L1.50 4.40L1.50 4.40Q1.89 3.09 2.08 2.03L2.08 2.03L2.08 2.03Q2.27 0.97 2.27 0.14L2.27 0.14L2.27 0.14Q2.27-0.28 2.42-0.52L2.42-0.52L2.42-0.52Q2.62-0.78 2.95-0.78L2.95-0.78L2.95-0.78Q3.36-0.78 4.06-0.25L4.06-0.25L4.06-0.25Q4.17-0.18 4.12-0.03L4.12-0.03L4.12-0.03Q4.09 0.04 4.06 0.18L4.06 0.18L4.06 0.18Q4.03 0.32 4.01 0.58L4.01 0.58L4.01 0.58Q3.99 0.84 3.98 1.23L3.98 1.23L3.98 1.23Q3.96 1.62 3.96 2.18L3.96 2.18L3.96 2.18Q3.96 3.46 4.05 4.60L4.05 4.60L4.05 4.60Q4.13 5.74 4.27 6.75L4.27 6.75L4.27 6.75Q4.35 7.35 4.41 7.77L4.41 7.77L4.41 7.77Q4.47 8.19 4.58 8.58L4.58 8.58L4.58 8.58Q4.63 8.76 4.76 8.93L4.76 8.93L4.76 8.93Q4.89 9.09 5.00 9.10L5.00 9.10L5.00 9.10Q5.00 9.10 5.03 9.07L5.03 9.07L5.03 9.07Q5.07 9.04 5.13 8.97L5.13 8.97L5.13 8.97Q5.19 8.89 5.29 8.74L5.29 8.74L5.29 8.74Q5.38 8.60 5.49 8.36L5.49 8.36L5.49 8.36Q5.67 7.97 5.80 7.42L5.80 7.42L5.80 7.42Q5.94 6.87 6.13 6.10L6.13 6.10L6.13 6.10Q6.48 4.70 6.69 3.54L6.69 3.54L6.69 3.54Q6.90 2.38 7.10 1.40L7.10 1.40L7.10 1.40Q7.11 1.20 7.12 1.07L7.12 1.07L7.12 1.07Q7.13 0.94 7.13 0.83L7.13 0.83L7.13 0.83Q7.13 0.73 7.13 0.63L7.13 0.63L7.13 0.63Q7.13 0.53 7.13 0.39L7.13 0.39L7.13 0.39Q7.13 0.22 7.15 0.10L7.15 0.10L7.15 0.10Q7.17-0.03 7.20-0.14L7.20-0.14L7.20-0.14Q7.22-0.22 7.31-0.36L7.31-0.36L7.31-0.36Q7.39-0.49 7.53-0.49L7.53-0.49L7.53-0.49Q7.97-0.49 8.25-0.43L8.25-0.43L8.25-0.43Q8.44-0.41 8.58-0.37L8.58-0.37L8.58-0.37Q8.71-0.34 8.82-0.28L8.82-0.28L8.82-0.28Q8.99-0.20 9.05-0.08L9.05-0.08L9.05-0.08Q9.11 0.03 9.13 0.10L9.13 0.10L9.13 0.10Q9.13 0.18 9.11 0.21L9.11 0.21L9.11 0.21Q9.09 0.25 9.04 0.43L9.04 0.43L9.04 0.43Q9.00 0.60 8.93 1.04L8.93 1.04L8.93 1.04Q8.88 1.39 8.82 1.86L8.82 1.86L8.82 1.86Q8.76 2.32 8.69 2.91L8.69 2.91L8.69 2.91Q8.44 5.29 8.44 6.72L8.44 6.72L8.44 6.72Q8.44 8.93 8.74 9.94L8.74 9.94L8.74 9.94Q9.02 10.86 9.56 11.02L9.56 11.02L9.56 11.02Q9.66 11.05 9.69 11.13ZM15.04 11.13L15.04 11.13L15.04 11.13Q15.32 11.26 15.32 11.56L15.32 11.56L15.32 11.56Q15.32 11.66 15.25 11.80L15.25 11.80L15.18 11.91L15.04 11.90L15.04 11.90Q14.63 11.83 14.44 11.81L14.44 11.81L14.44 11.81Q14.25 11.79 14.18 11.79L14.18 11.79L14.18 11.79Q14.11 11.79 13.95 11.82L13.95 11.82L13.95 11.82Q13.79 11.86 13.47 11.97L13.47 11.97L13.47 11.97Q13.48 12.03 13.48 12.12L13.48 12.12L13.48 12.12Q13.48 12.21 13.50 12.33L13.50 12.33L13.50 12.33Q13.51 12.57 13.51 12.72L13.51 12.72L13.51 12.72Q13.51 12.87 13.51 12.96L13.51 12.96L13.51 12.96Q13.51 14.73 12.94 15.64L12.94 15.64L12.94 15.64Q12.32 16.59 11.12 16.59L11.12 16.59L11.12 16.59Q10.30 16.59 9.76 16.04L9.76 16.04L9.76 16.04Q9.21 15.48 9.21 14.67L9.21 14.67L9.21 14.67Q9.21 13.47 10.67 12.43L10.67 12.43L10.67 12.43Q11.69 11.70 12.61 11.48L12.61 11.48L12.61 11.48Q12.61 11.28 12.59 10.99L12.59 10.99L12.59 10.99Q12.57 10.70 12.54 10.32L12.54 10.32L12.54 10.32Q12.52 10.16 12.51 10.05L12.51 10.05L12.51 10.05Q12.50 9.94 12.49 9.83L12.49 9.83L12.49 9.83Q12.46 9.90 12.44 9.95L12.44 9.95L12.44 9.95Q12.42 10.00 12.39 10.07L12.39 10.07L12.38 10.07L12.38 10.07Q12.08 10.67 11.59 10.67L11.59 10.67L11.59 10.67Q11.06 10.67 10.72 10.12L10.72 10.12L10.72 10.12Q10.54 9.79 10.47 9.35L10.47 9.35L10.47 9.35Q10.32 9.74 10.19 9.98L10.19 9.98L10.19 9.98Q10.07 10.22 9.95 10.35L9.95 10.35L9.95 10.35Q9.84 10.49 9.75 10.53L9.75 10.53L9.75 10.53Q9.66 10.57 9.58 10.57L9.58 10.57L9.58 10.57Q9.21 10.57 9.12 10.44L9.12 10.44L9.12 10.44Q9.03 10.32 9.03 10.22L9.03 10.22L9.03 10.22Q9.03 10.07 9.09 9.99L9.09 9.99L9.09 9.99Q9.16 9.91 9.21 9.88L9.21 9.88L9.23 9.87L9.44 9.76L9.46 9.76L9.46 9.76Q9.48 9.74 9.52 9.68L9.52 9.68L9.52 9.68Q9.56 9.62 9.64 9.46L9.64 9.46L9.64 9.46Q9.72 9.31 9.81 9.05L9.81 9.05L9.81 9.05Q9.91 8.79 10.05 8.39L10.05 8.39L10.05 8.39Q10.40 7.32 10.68 6.17L10.68 6.17L10.68 6.17Q10.68 6.15 10.69 6.13L10.69 6.13L10.69 6.13Q10.70 6.12 10.70 6.09L10.70 6.09L10.70 6.09Q10.75 5.73 10.77 5.60L10.77 5.60L10.77 5.60Q10.79 5.47 10.82 5.42L10.82 5.42L10.82 5.42Q10.85 5.35 10.95 5.25L10.95 5.25L10.95 5.25Q11.05 5.15 11.26 5.15L11.26 5.15L11.26 5.15Q11.47 5.15 11.59 5.28L11.59 5.28L11.59 5.28Q11.62 5.32 11.66 5.40L11.66 5.40L11.66 5.40Q11.69 5.47 11.69 5.59L11.69 5.59L11.69 5.59Q11.58 6.37 11.52 7.11L11.52 7.11L11.52 7.11Q11.40 8.27 11.40 8.92L11.40 8.92L11.40 8.92Q11.40 9.51 11.47 9.71L11.47 9.71L11.47 9.71Q11.55 9.91 11.58 9.93L11.58 9.93L11.58 9.93Q11.61 9.90 11.68 9.80L11.68 9.80L11.68 9.80Q11.76 9.70 11.89 9.39L11.89 9.39L11.89 9.39Q12.00 9.11 12.12 8.73L12.12 8.73L12.12 8.73Q12.24 8.34 12.36 7.84L12.36 7.84L12.36 7.84Q12.42 7.39 12.50 6.72L12.50 6.72L12.50 6.72Q12.59 6.05 12.71 5.12L12.71 5.12L12.71 5.12Q12.78 4.61 13.30 4.56L13.30 4.56L13.30 4.56Q13.31 4.55 13.37 4.55L13.37 4.55L13.37 4.55Q13.55 4.55 13.65 4.66L13.65 4.66L13.65 4.66Q13.75 4.77 13.75 4.96L13.75 4.96L13.75 4.96Q13.75 5.15 13.67 5.52L13.67 5.52L13.67 5.52Q13.59 5.89 13.43 6.48L13.43 6.48L13.43 6.48Q13.40 6.57 13.38 6.75L13.38 6.75L13.38 6.75Q13.36 6.94 13.34 7.29L13.34 7.29L13.34 7.29Q13.33 7.64 13.32 8.17L13.32 8.17L13.32 8.17Q13.31 8.69 13.31 9.46L13.31 9.46L13.31 9.46Q13.33 9.79 13.34 10.12L13.34 10.12L13.34 10.12Q13.34 10.46 13.37 10.81L13.37 10.81L13.37 10.81Q13.37 10.96 13.38 11.07L13.38 11.07L13.38 11.07Q13.38 11.17 13.38 11.24L13.38 11.24L13.38 11.24Q13.45 11.21 13.54 11.19L13.54 11.19L13.54 11.19Q13.62 11.17 13.73 11.14L13.73 11.14L13.73 11.14Q14.17 11.02 14.45 11.02L14.45 11.02L14.45 11.02Q14.81 11.02 15.04 11.13ZM12.66 13.05L12.66 12.24L12.66 12.24Q12.53 12.28 12.40 12.33L12.40 12.33L12.40 12.33Q12.28 12.38 12.17 12.43L12.17 12.43L12.15 12.43L12.15 12.43Q11.33 12.80 10.79 13.36L10.79 13.36L10.79 13.36Q10.08 14.06 10.08 14.81L10.08 14.81L10.08 14.81Q10.08 15.25 10.36 15.57L10.36 15.57L10.36 15.57Q10.63 15.88 10.98 15.88L10.98 15.88L10.98 15.88Q11.68 15.88 12.14 15.11L12.14 15.11L12.14 15.11Q12.66 14.28 12.66 13.05L12.66 13.05ZM24.46 8.71L24.46 8.71L24.46 8.71Q24.46 10.01 24.99 10.70L24.99 10.70L24.99 10.70Q25.03 10.77 25.03 10.85L25.03 10.85L25.03 10.85Q25.00 10.93 24.95 10.98L24.95 10.98L24.95 10.98Q24.49 11.27 24.12 11.27L24.12 11.27L24.12 11.27Q23.95 11.27 23.73 11.05L23.73 11.05L23.73 11.05Q23.66 10.89 23.63 10.74L23.63 10.74L23.63 10.74Q23.60 10.60 23.58 10.44L23.58 10.44L23.58 10.44Q23.53 10.19 23.53 9.93L23.53 9.93L23.53 9.93Q23.53 9.67 23.53 9.42L23.53 9.42L23.53 9.42Q23.53 9.39 23.53 9.39L23.53 9.39L23.53 9.39Q23.52 9.38 23.52 9.37L23.52 9.37L23.52 6.85L23.52 6.85Q23.02 6.80 21.59 6.80L21.59 6.80L20.47 6.80L20.47 6.80Q20.37 6.80 20.28 6.82L20.28 6.82L20.28 6.82Q20.19 6.83 20.15 6.83L20.15 6.83L20.06 6.83L20.03 6.83L20.03 6.83Q19.88 6.85 19.82 6.85L19.82 6.85L19.82 6.85Q19.75 6.85 19.71 6.87L19.71 6.87L19.71 6.87Q19.73 6.87 19.75 6.90L19.75 6.90L19.75 6.90Q19.71 6.93 19.71 7L19.71 7L19.71 7Q19.71 7.13 19.69 7.25L19.69 7.25L19.69 7.25Q19.67 7.38 19.66 7.50L19.66 7.50L19.66 7.50Q19.63 7.64 19.64 7.74L19.64 7.74L19.63 7.74L19.63 7.74Q19.60 8.22 19.58 8.55L19.58 8.55L19.58 8.55Q19.56 8.89 19.56 9.09L19.56 9.09L19.56 9.09Q19.56 9.58 19.61 10.00L19.61 10.00L19.61 10.00Q19.66 10.43 19.74 10.79L19.74 10.79L19.74 10.79Q19.75 10.86 19.71 10.96L19.71 10.96L19.71 10.96Q19.64 11.03 19.57 11.05L19.57 11.05L19.36 11.05L19.36 11.05Q19.01 11.05 18.86 10.93L18.86 10.93L18.86 10.93Q18.70 10.81 18.65 10.68L18.65 10.68L18.65 10.67L18.65 10.67Q18.65 10.65 18.64 10.63L18.64 10.63L18.64 10.63Q18.63 10.60 18.62 10.51L18.62 10.51L18.62 10.51Q18.61 10.43 18.59 10.26L18.59 10.26L18.59 10.26Q18.56 10.08 18.52 9.76L18.52 9.76L18.52 9.76Q18.49 9.53 18.48 9.30L18.48 9.30L18.48 9.30Q18.47 9.06 18.47 8.79L18.47 8.79L18.47 8.79Q18.47 8.54 18.48 8.26L18.48 8.26L18.48 8.26Q18.49 7.98 18.52 7.66L18.52 7.66L18.52 7.66Q18.54 7.52 18.54 7.34L18.54 7.34L18.54 7.34Q18.55 7.17 18.55 7.10L18.55 7.10L18.55 7.10Q18.38 7.13 18.22 7.18L18.22 7.18L18.22 7.18Q18.06 7.24 17.91 7.24L17.91 7.24L17.89 7.24L17.89 7.24Q17.68 7.22 17.53 7.11L17.53 7.11L17.53 7.11Q17.47 7.07 17.43 6.99L17.43 6.99L17.43 6.99Q17.39 6.90 17.39 6.76L17.39 6.76L17.39 6.76Q17.39 6.51 17.50 6.41L17.50 6.41L17.50 6.41Q17.61 6.30 17.71 6.27L17.71 6.27L17.71 6.27Q17.72 6.27 17.75 6.26L17.75 6.26L17.75 6.26Q17.78 6.24 17.88 6.22L17.88 6.22L17.88 6.22Q17.98 6.20 18.14 6.17L18.14 6.17L18.14 6.17Q18.31 6.13 18.59 6.08L18.59 6.08L18.59 6.08Q18.77 4.45 18.86 3.32L18.86 3.32L18.86 3.32Q18.96 2.18 18.96 1.53L18.96 1.53L18.96 1.53Q18.96 0.81 18.87 0.48L18.87 0.48L18.87 0.48Q18.84 0.38 18.91 0.31L18.91 0.31L18.91 0.31Q18.94 0.24 19.05 0.24L19.05 0.24L19.08 0.24L19.08 0.24Q19.77 0.29 20.02 0.57L20.02 0.57L20.02 0.57Q20.29 0.84 20.29 1.55L20.29 1.55L20.29 1.55Q20.29 1.75 20.22 2.29L20.22 2.29L20.22 2.29Q20.16 2.83 20.05 3.74L20.05 3.74L20.05 3.74Q19.95 4.49 19.90 5.04L19.90 5.04L19.90 5.04Q19.85 5.59 19.82 5.91L19.82 5.91L19.82 5.91Q19.94 5.92 20.09 5.92L20.09 5.92L20.09 5.92Q20.24 5.92 20.44 5.92L20.44 5.92L20.44 5.92Q20.64 5.92 20.86 5.92L20.86 5.92L20.86 5.92Q21.08 5.92 21.35 5.91L21.35 5.91L21.35 5.91Q22.23 5.88 22.78 5.87L22.78 5.87L22.78 5.87Q23.32 5.85 23.56 5.85L23.56 5.85L23.56 5.85Q23.60 5.46 23.65 4.75L23.65 4.75L23.65 4.75Q23.80 2.83 23.88 1.78L23.88 1.78L23.88 1.78Q23.95 0.73 23.95 0.55L23.95 0.55L23.95 0.52L23.95 0.52Q23.95 0.50 23.93 0.39L23.93 0.39L23.93 0.39Q23.90 0.31 23.90 0.24L23.90 0.24L23.90 0.24Q23.90 0.18 23.90 0.13L23.90 0.13L23.90 0.13Q23.90 0.07 23.92-0.03L23.92-0.03L23.92-0.03Q23.94-0.13 24.00-0.22L24.00-0.22L24.00-0.22Q24.07-0.31 24.20-0.37L24.20-0.37L24.20-0.37Q24.33-0.43 24.57-0.43L24.57-0.43L24.57-0.43Q24.96-0.43 25.28-0.18L25.28-0.18L25.28-0.18Q25.62 0.07 25.62 0.43L25.62 0.43L25.62 0.43Q25.62 0.49 25.60 0.60L25.60 0.60L25.60 0.60Q25.58 0.71 25.48 0.95L25.48 0.95L25.48 0.95Q25.40 1.15 25.34 1.32L25.34 1.32L25.34 1.32Q25.28 1.50 25.26 1.65L25.26 1.65L25.26 1.65Q25.16 2.14 25.06 2.79L25.06 2.79L25.06 2.79Q24.96 3.43 24.85 4.24L24.85 4.24L24.85 4.24Q24.77 4.87 24.72 5.24L24.72 5.24L24.72 5.24Q24.67 5.60 24.64 5.78L24.64 5.78L24.64 5.78Q24.64 5.80 24.63 5.80L24.63 5.80L24.63 5.80Q24.63 5.81 24.63 5.82L24.63 5.82L24.63 5.82Q24.64 5.95 24.63 6.07L24.63 6.07L24.63 6.07Q24.63 6.19 24.61 6.31L24.61 6.31L24.61 6.31Q24.60 6.37 24.60 6.42L24.60 6.42L24.60 6.42Q24.60 6.47 24.58 6.51L24.58 6.51L24.58 6.51Q24.54 6.64 24.54 6.76L24.54 6.76L24.54 6.79L24.54 6.79Q24.54 7.11 24.50 7.66L24.50 7.66L24.50 7.66Q24.46 8.36 24.46 8.71ZM29.20 5.53L29.20 5.53L29.20 5.53Q29.54 5.53 29.54 5.87L29.54 5.87L29.54 5.87Q29.54 6.23 29.44 6.64L29.44 6.64L29.44 6.64Q29.34 7.06 29.13 7.52L29.13 7.52L29.13 7.52Q28.73 8.43 28.04 8.43L28.04 8.43L28.04 8.43Q28 8.43 27.93 8.41L27.93 8.41L27.93 8.41Q27.86 8.39 27.66 8.32L27.66 8.32L27.66 8.32Q27.64 8.46 27.60 8.60L27.60 8.60L27.60 8.60Q27.57 8.75 27.52 8.92L27.52 8.92L27.52 8.95L27.52 8.95Q27.40 9.31 27.30 9.55L27.30 9.55L27.30 9.55Q27.20 9.79 27.12 9.93L27.12 9.93L27.12 9.93Q26.75 10.51 26.21 10.51L26.21 10.51L26.21 10.51Q25.54 10.51 25.21 9.84L25.21 9.84L25.21 9.84Q24.92 9.24 24.92 8.06L24.92 8.06L24.92 8.06Q24.92 6.66 25.14 6.12L25.14 6.12L25.14 6.03L25.14 6.03Q25.13 5.95 25.13 5.89L25.13 5.89L25.13 5.89Q25.13 5.82 25.13 5.77L25.13 5.77L25.13 5.75L25.13 5.75Q25.16 5.54 25.24 5.46L25.24 5.46L25.24 5.46Q25.26 5.40 25.28 5.28L25.28 5.28L25.28 5.28Q25.31 5.15 25.38 4.87L25.38 4.87L25.38 4.87Q25.42 4.66 25.52 4.54L25.52 4.54L25.52 4.54Q25.61 4.41 25.70 4.34L25.70 4.34L25.70 4.34Q25.80 4.27 25.90 4.25L25.90 4.25L25.90 4.25Q26.00 4.23 26.08 4.23L26.08 4.23L26.08 4.23Q26.52 4.23 27.01 4.59L27.01 4.59L27.01 4.59Q27.50 4.94 27.65 5.38L27.65 5.38L27.65 5.38Q27.66 5.43 27.69 5.54L27.69 5.54L27.69 5.54Q27.71 5.66 27.72 5.89L27.72 5.89L27.72 5.89Q27.73 6.12 27.75 6.51L27.75 6.51L27.75 6.51Q27.76 6.90 27.76 7.50L27.76 7.50L27.76 7.50Q27.83 7.56 27.93 7.56L27.93 7.56L27.93 7.56Q28.06 7.56 28.22 7.49L28.22 7.49L28.22 7.49Q28.38 7.42 28.53 7.10L28.53 7.10L28.53 7.10Q28.56 7.01 28.64 6.77L28.64 6.77L28.64 6.77Q28.71 6.52 28.84 5.95L28.84 5.95L28.84 5.95Q28.92 5.53 29.20 5.53ZM26.54 9.17L26.54 9.17L26.54 9.17Q26.75 8.71 26.82 8.45L26.82 8.45L26.82 8.45Q26.88 8.19 26.88 8.08L26.88 8.08L26.88 8.08Q26.88 7.88 26.85 7.62L26.85 7.62L26.85 7.62Q26.82 7.35 26.77 7.03L26.77 7.03L26.77 7.03Q26.68 6.58 26.66 6.41L26.66 6.41L26.66 6.41Q26.64 6.24 26.64 6.17L26.64 6.17L26.64 6.17Q26.64 6.10 26.64 6.02L26.64 6.02L26.64 6.02Q26.64 5.94 26.67 5.82L26.67 5.82L26.67 5.82Q26.68 5.71 26.68 5.63L26.68 5.63L26.68 5.63Q26.68 5.56 26.68 5.52L26.68 5.52L26.68 5.52Q26.68 5.32 26.61 5.26L26.61 5.26L26.61 5.26Q26.54 5.19 26.43 5.19L26.43 5.19L26.43 5.19Q26.42 5.21 26.38 5.26L26.38 5.26L26.38 5.26Q26.35 5.32 26.30 5.45L26.30 5.45L26.30 5.45Q26.25 5.59 26.19 5.82L26.19 5.82L26.19 5.82Q26.12 6.06 26.05 6.44L26.05 6.44L26.05 6.44Q25.94 7.03 25.89 7.47L25.89 7.47L25.89 7.47Q25.83 7.91 25.83 8.23L25.83 8.23L25.83 8.23Q25.83 8.43 25.84 8.67L25.84 8.67L25.84 8.67Q25.86 8.90 25.91 9.12L25.91 9.12L25.91 9.12Q25.96 9.34 26.04 9.48L26.04 9.48L26.04 9.48Q26.12 9.63 26.26 9.65L26.26 9.65L26.26 9.65Q26.29 9.62 26.36 9.53L26.36 9.53L26.36 9.53Q26.42 9.44 26.54 9.17ZM35.31 5.43L35.31 5.43L35.31 5.43Q35.42 5.43 35.52 5.52L35.52 5.52L35.52 5.52Q35.62 5.60 35.62 5.81L35.62 5.81L35.62 5.81Q35.62 5.85 35.61 5.94L35.61 5.94L35.61 5.94Q35.60 6.02 35.57 6.17L35.57 6.17L35.57 6.17Q35.55 6.33 35.49 6.57L35.49 6.57L35.49 6.57Q35.43 6.80 35.34 7.15L35.34 7.15L35.34 7.15Q35.18 7.67 35.03 8.15L35.03 8.15L35.03 8.15Q34.87 8.62 34.71 9.06L34.71 9.06L34.71 9.06Q34.23 10.35 33.56 10.35L33.56 10.35L33.56 10.35Q32.77 10.35 32.61 8.89L32.61 8.89L32.61 8.89Q32.59 8.89 32.59 8.88L32.59 8.88L32.59 8.54L32.59 8.54Q32.49 8.85 32.43 9.05L32.43 9.05L32.43 9.05Q32.37 9.25 32.33 9.35L32.33 9.35L32.33 9.35Q31.95 10.35 31.43 10.35L31.43 10.35L31.43 10.35Q31.30 10.35 31.18 10.30L31.18 10.30L31.18 10.30Q31.05 10.26 30.95 10.14L30.95 10.14L30.95 10.14Q30.84 10.01 30.77 9.79L30.77 9.79L30.77 9.79Q30.70 9.58 30.70 9.24L30.70 9.24L30.70 9.24Q30.70 9.06 30.79 8.05L30.79 8.05L30.79 8.05Q30.81 7.77 30.82 7.52L30.82 7.52L30.82 7.52Q30.83 7.27 30.84 7.04L30.84 7.04L30.84 7.04Q30.80 7.17 30.76 7.41L30.76 7.41L30.76 7.41Q30.45 8.95 30.32 9.37L30.32 9.37L30.32 9.37Q29.95 10.56 29.36 10.56L29.36 10.56L29.36 10.56Q29.13 10.56 29.01 10.39L29.01 10.39L29.01 10.39Q28.88 10.23 28.81 9.99L28.81 9.99L28.81 9.99Q28.74 9.74 28.72 9.45L28.72 9.45L28.72 9.45Q28.70 9.16 28.70 8.88L28.70 8.88L28.70 8.88Q28.70 8.72 28.71 8.48L28.71 8.48L28.71 8.48Q28.71 8.23 28.73 7.88L28.73 7.88L28.73 7.88Q28.74 7.59 28.74 7.38L28.74 7.38L28.74 7.38Q28.74 7.18 28.74 7.04L28.74 7.04L28.63 6.73L28.63 6.73Q28.62 6.72 28.62 6.68L28.62 6.68L28.62 6.68Q28.56 5.85 28.81 5.57L28.81 5.57L28.81 5.57Q28.95 5.43 29.15 5.43L29.15 5.43L29.15 5.43Q29.23 5.43 29.34 5.46L29.34 5.46L29.34 5.46Q29.44 5.49 29.53 5.57L29.53 5.57L29.53 5.57Q29.61 5.66 29.67 5.81L29.67 5.81L29.67 5.81Q29.74 5.96 29.74 6.22L29.74 6.22L29.74 6.22Q29.74 6.80 29.62 7.32L29.62 7.32L29.62 7.32Q29.53 7.76 29.53 8.40L29.53 8.40L29.53 8.40Q29.53 8.55 29.53 8.70L29.53 8.70L29.53 8.70Q29.53 8.85 29.54 8.99L29.54 8.99L29.54 8.99Q29.57 8.89 29.60 8.80L29.60 8.80L29.60 8.80Q29.62 8.71 29.65 8.61L29.65 8.61L29.65 8.61Q29.82 7.69 29.96 7.08L29.96 7.08L29.96 7.08Q30.10 6.47 30.24 6.12L30.24 6.12L30.24 6.12Q30.27 6.05 30.32 5.92L30.32 5.92L30.32 5.92Q30.38 5.78 30.47 5.65L30.47 5.65L30.47 5.65Q30.56 5.52 30.70 5.42L30.70 5.42L30.70 5.42Q30.83 5.32 31.01 5.32L31.01 5.32L31.01 5.32Q31.12 5.32 31.27 5.39L31.27 5.39L31.27 5.39Q31.42 5.46 31.53 5.70L31.53 5.70L31.53 5.70Q31.67 5.98 31.67 6.54L31.67 6.54L31.67 6.55L31.67 6.55Q31.60 7.20 31.56 7.71L31.56 7.71L31.56 7.71Q31.51 8.22 31.51 8.60L31.51 8.60L31.51 8.60Q31.51 8.75 31.52 8.84L31.52 8.84L31.52 8.84Q31.53 8.93 31.53 9.00L31.53 9.00L31.53 9.00Q31.61 8.89 31.75 8.54L31.75 8.54L31.75 8.54Q31.88 8.19 32.07 7.45L32.07 7.45L32.07 7.45Q32.23 6.87 32.31 6.52L32.31 6.52L32.31 6.52Q32.40 6.16 32.44 5.95L32.44 5.95L32.44 5.95Q32.48 5.74 32.48 5.66L32.48 5.66L32.48 5.66Q32.48 5.59 32.48 5.56L32.48 5.56L32.48 5.49L32.48 5.49Q32.51 5.39 32.61 5.27L32.61 5.27L32.61 5.27Q32.70 5.15 33.00 5.15L33.00 5.15L33.00 5.15Q33.25 5.15 33.68 5.43L33.68 5.43L33.68 5.43Q33.81 5.52 33.77 5.64L33.77 5.64L33.77 5.64Q33.40 7.39 33.40 8.53L33.40 8.53L33.40 8.53Q33.40 8.85 33.42 9.04L33.42 9.04L33.42 9.04Q33.45 9.23 33.47 9.32L33.47 9.32L33.47 9.32Q33.52 9.44 33.56 9.48L33.56 9.48L33.56 9.48Q33.57 9.48 33.62 9.45L33.62 9.45L33.62 9.45Q33.67 9.42 33.76 9.30L33.76 9.30L33.76 9.30Q33.85 9.18 33.98 8.93L33.98 8.93L33.98 8.93Q34.10 8.67 34.26 8.20L34.26 8.20L34.26 8.19L34.26 8.19Q34.27 8.18 34.30 8.09L34.30 8.09L34.30 8.09Q34.33 7.99 34.39 7.77L34.39 7.77L34.39 7.77Q34.45 7.55 34.56 7.15L34.56 7.15L34.56 7.15Q34.66 6.76 34.83 6.15L34.83 6.15L34.83 6.15Q34.86 6.08 34.88 5.99L34.88 5.99L34.88 5.99Q34.90 5.91 34.93 5.82L34.93 5.82L34.96 5.70L34.96 5.68L34.96 5.68Q35.06 5.43 35.31 5.43ZM38.33 5.49L38.33 5.49L38.33 5.49Q38.51 5.49 38.50 5.59L38.50 5.59L38.50 5.59Q38.49 5.70 38.49 5.87L38.49 5.87L38.49 5.87Q38.49 5.89 38.48 5.96L38.48 5.96L38.48 5.96Q38.47 6.02 38.44 6.13L38.44 6.13L38.44 6.13Q38.42 6.24 38.37 6.44L38.37 6.44L38.37 6.44Q38.33 6.64 38.25 6.93L38.25 6.93L38.25 6.93Q37.98 8.01 37.67 8.83L37.67 8.83L37.67 8.83Q37.52 9.24 37.37 9.53L37.37 9.53L37.37 9.53Q37.23 9.81 37.09 10.01L37.09 10.01L37.09 10.01Q36.71 10.54 36.13 10.54L36.13 10.54L36.13 10.54Q35.49 10.54 35.03 9.87L35.03 9.87L35.03 9.87Q34.61 9.24 34.61 8.34L34.61 8.34L34.61 8.34Q34.61 7.62 34.71 6.87L34.71 6.87L34.71 6.87Q34.82 6.13 34.99 5.54L34.99 5.54L34.99 5.54Q35.04 5.33 35.12 5.11L35.12 5.11L35.12 5.11Q35.20 4.89 35.31 4.70L35.31 4.70L35.31 4.70Q35.42 4.51 35.56 4.39L35.56 4.39L35.56 4.39Q35.70 4.27 35.90 4.27L35.90 4.27L35.90 4.27Q36.29 4.27 36.62 4.56L36.62 4.56L36.62 4.56Q36.78 4.72 36.88 4.94L36.88 4.94L36.88 4.94Q36.97 5.17 36.97 5.33L36.97 5.33L36.97 5.33Q36.97 5.61 36.92 5.95L36.92 5.95L36.92 5.95Q36.86 6.29 36.78 6.62L36.78 6.62L36.78 6.62Q36.69 6.94 36.59 7.22L36.59 7.22L36.59 7.22Q36.48 7.49 36.37 7.66L36.37 7.66L36.37 7.66Q36.30 7.78 36.18 7.91L36.18 7.91L36.18 7.91Q36.05 8.04 35.92 8.11L35.92 8.11L35.92 8.11Q35.78 8.19 35.66 8.20L35.66 8.20L35.66 8.20Q35.55 8.20 35.46 8.09L35.46 8.09L35.46 8.09Q35.43 8.20 35.45 8.39L35.45 8.39L35.45 8.39Q35.46 8.57 35.49 8.74L35.49 8.74L35.49 8.74Q35.52 8.92 35.56 9.07L35.56 9.07L35.56 9.07Q35.60 9.23 35.63 9.30L35.63 9.30L35.63 9.30Q35.74 9.53 35.92 9.65L35.92 9.65L35.92 9.65Q36.11 9.77 36.18 9.77L36.18 9.77L36.18 9.77Q36.32 9.77 36.45 9.56L36.45 9.56L36.45 9.56Q36.58 9.35 36.79 9.03L36.79 9.03L36.79 9.03Q37.03 8.65 37.32 7.97L37.32 7.97L37.32 7.97Q37.62 7.28 37.86 6.50L37.86 6.50L37.86 6.50Q37.90 6.34 37.93 6.20L37.93 6.20L37.93 6.20Q37.97 6.05 38.01 5.89L38.01 5.89L38.01 5.89Q38.08 5.49 38.33 5.49ZM36.13 5.19L36.13 5.19L36.13 5.19Q36.02 5.50 35.93 5.75L35.93 5.75L35.93 5.75Q35.84 5.99 35.76 6.22L35.76 6.22L35.76 6.22Q35.67 6.45 35.62 6.69L35.62 6.69L35.62 6.69Q35.56 6.93 35.55 7.22L35.55 7.22L35.55 7.22Q35.73 7.21 35.86 6.97L35.86 6.97L35.86 6.97Q35.99 6.73 36.04 6.54L36.04 6.54L36.04 6.54Q36.09 6.26 36.15 5.97L36.15 5.97L36.15 5.97Q36.22 5.68 36.22 5.38L36.22 5.38L36.22 5.38Q36.22 5.31 36.20 5.20L36.20 5.20L36.20 5.20Q36.18 5.10 36.13 5.19Z"></path></g><!----><!----></svg>